<mxfile host="app.diagrams.net" modified="2023-03-28T13:11:17.403Z" agent="Mozilla/5.0 (Windows NT 10.0; Win64; x64) AppleWebKit/537.36 (KHTML, like Gecko) Chrome/111.0.0.0 Safari/537.36" etag="zGdSlhclCuii8UO4hrMw" version="21.1.1" type="github">
  <diagram name="Page-1" id="fenCeteEhqouPN4ILSDX">
    <mxGraphModel dx="880" dy="427" grid="1" gridSize="10" guides="1" tooltips="1" connect="1" arrows="1" fold="1" page="1" pageScale="1" pageWidth="850" pageHeight="1100" math="0" shadow="0">
      <root>
        <mxCell id="0" />
        <mxCell id="1" parent="0" />
        <mxCell id="hAPkz2zvEFKOFmrOKY_a-2" style="edgeStyle=orthogonalEdgeStyle;rounded=0;orthogonalLoop=1;jettySize=auto;html=1;exitX=0.5;exitY=1;exitDx=0;exitDy=0;" edge="1" parent="1" source="hAPkz2zvEFKOFmrOKY_a-1" target="hAPkz2zvEFKOFmrOKY_a-3">
          <mxGeometry relative="1" as="geometry">
            <mxPoint x="100" y="220" as="targetPoint" />
          </mxGeometry>
        </mxCell>
        <mxCell id="hAPkz2zvEFKOFmrOKY_a-1" value="CMD" style="rounded=1;whiteSpace=wrap;html=1;" vertex="1" parent="1">
          <mxGeometry x="40" y="90" width="120" height="60" as="geometry" />
        </mxCell>
        <mxCell id="hAPkz2zvEFKOFmrOKY_a-3" value="Main.go" style="ellipse;whiteSpace=wrap;html=1;" vertex="1" parent="1">
          <mxGeometry x="40" y="200" width="120" height="80" as="geometry" />
        </mxCell>
        <mxCell id="hAPkz2zvEFKOFmrOKY_a-5" style="edgeStyle=orthogonalEdgeStyle;rounded=0;orthogonalLoop=1;jettySize=auto;html=1;exitX=0.5;exitY=1;exitDx=0;exitDy=0;" edge="1" parent="1" source="hAPkz2zvEFKOFmrOKY_a-4" target="hAPkz2zvEFKOFmrOKY_a-6">
          <mxGeometry relative="1" as="geometry">
            <mxPoint x="210" y="210" as="targetPoint" />
          </mxGeometry>
        </mxCell>
        <mxCell id="hAPkz2zvEFKOFmrOKY_a-18" style="edgeStyle=orthogonalEdgeStyle;rounded=0;orthogonalLoop=1;jettySize=auto;html=1;exitX=0.5;exitY=1;exitDx=0;exitDy=0;entryX=0.633;entryY=-0.033;entryDx=0;entryDy=0;entryPerimeter=0;" edge="1" parent="1" source="hAPkz2zvEFKOFmrOKY_a-4" target="hAPkz2zvEFKOFmrOKY_a-8">
          <mxGeometry relative="1" as="geometry" />
        </mxCell>
        <mxCell id="hAPkz2zvEFKOFmrOKY_a-19" style="edgeStyle=orthogonalEdgeStyle;rounded=0;orthogonalLoop=1;jettySize=auto;html=1;exitX=0.75;exitY=1;exitDx=0;exitDy=0;entryX=0.5;entryY=0;entryDx=0;entryDy=0;" edge="1" parent="1" source="hAPkz2zvEFKOFmrOKY_a-4" target="hAPkz2zvEFKOFmrOKY_a-10">
          <mxGeometry relative="1" as="geometry" />
        </mxCell>
        <mxCell id="hAPkz2zvEFKOFmrOKY_a-20" style="edgeStyle=orthogonalEdgeStyle;rounded=0;orthogonalLoop=1;jettySize=auto;html=1;exitX=1;exitY=0.5;exitDx=0;exitDy=0;entryX=0.4;entryY=-0.05;entryDx=0;entryDy=0;entryPerimeter=0;" edge="1" parent="1" source="hAPkz2zvEFKOFmrOKY_a-4" target="hAPkz2zvEFKOFmrOKY_a-12">
          <mxGeometry relative="1" as="geometry" />
        </mxCell>
        <mxCell id="hAPkz2zvEFKOFmrOKY_a-21" style="edgeStyle=orthogonalEdgeStyle;rounded=0;orthogonalLoop=1;jettySize=auto;html=1;exitX=0.25;exitY=1;exitDx=0;exitDy=0;" edge="1" parent="1" source="hAPkz2zvEFKOFmrOKY_a-4">
          <mxGeometry relative="1" as="geometry">
            <mxPoint x="860" y="200" as="targetPoint" />
          </mxGeometry>
        </mxCell>
        <mxCell id="hAPkz2zvEFKOFmrOKY_a-4" value="PKG" style="rounded=1;whiteSpace=wrap;html=1;" vertex="1" parent="1">
          <mxGeometry x="410" y="100" width="120" height="50" as="geometry" />
        </mxCell>
        <mxCell id="hAPkz2zvEFKOFmrOKY_a-23" value="" style="edgeStyle=orthogonalEdgeStyle;rounded=0;orthogonalLoop=1;jettySize=auto;html=1;" edge="1" parent="1" source="hAPkz2zvEFKOFmrOKY_a-6" target="hAPkz2zvEFKOFmrOKY_a-22">
          <mxGeometry relative="1" as="geometry" />
        </mxCell>
        <mxCell id="hAPkz2zvEFKOFmrOKY_a-6" value="Config" style="rounded=1;whiteSpace=wrap;html=1;" vertex="1" parent="1">
          <mxGeometry x="180" y="210" width="120" height="60" as="geometry" />
        </mxCell>
        <mxCell id="hAPkz2zvEFKOFmrOKY_a-7" style="edgeStyle=orthogonalEdgeStyle;rounded=0;orthogonalLoop=1;jettySize=auto;html=1;exitX=0.5;exitY=1;exitDx=0;exitDy=0;" edge="1" parent="1" source="hAPkz2zvEFKOFmrOKY_a-6" target="hAPkz2zvEFKOFmrOKY_a-6">
          <mxGeometry relative="1" as="geometry" />
        </mxCell>
        <mxCell id="hAPkz2zvEFKOFmrOKY_a-9" value="" style="edgeStyle=orthogonalEdgeStyle;rounded=0;orthogonalLoop=1;jettySize=auto;html=1;" edge="1" parent="1" source="hAPkz2zvEFKOFmrOKY_a-8" target="hAPkz2zvEFKOFmrOKY_a-6">
          <mxGeometry relative="1" as="geometry" />
        </mxCell>
        <mxCell id="hAPkz2zvEFKOFmrOKY_a-16" style="edgeStyle=orthogonalEdgeStyle;rounded=0;orthogonalLoop=1;jettySize=auto;html=1;exitX=1;exitY=0.5;exitDx=0;exitDy=0;" edge="1" parent="1" source="hAPkz2zvEFKOFmrOKY_a-8" target="hAPkz2zvEFKOFmrOKY_a-10">
          <mxGeometry relative="1" as="geometry" />
        </mxCell>
        <mxCell id="hAPkz2zvEFKOFmrOKY_a-25" value="" style="edgeStyle=orthogonalEdgeStyle;rounded=0;orthogonalLoop=1;jettySize=auto;html=1;" edge="1" parent="1" source="hAPkz2zvEFKOFmrOKY_a-8" target="hAPkz2zvEFKOFmrOKY_a-24">
          <mxGeometry relative="1" as="geometry" />
        </mxCell>
        <mxCell id="hAPkz2zvEFKOFmrOKY_a-8" value="Controller" style="rounded=1;whiteSpace=wrap;html=1;" vertex="1" parent="1">
          <mxGeometry x="330" y="210" width="60" height="60" as="geometry" />
        </mxCell>
        <mxCell id="hAPkz2zvEFKOFmrOKY_a-11" value="" style="edgeStyle=orthogonalEdgeStyle;rounded=0;orthogonalLoop=1;jettySize=auto;html=1;" edge="1" parent="1" source="hAPkz2zvEFKOFmrOKY_a-10" target="hAPkz2zvEFKOFmrOKY_a-8">
          <mxGeometry relative="1" as="geometry" />
        </mxCell>
        <mxCell id="hAPkz2zvEFKOFmrOKY_a-15" style="edgeStyle=orthogonalEdgeStyle;rounded=0;orthogonalLoop=1;jettySize=auto;html=1;exitX=1;exitY=0.5;exitDx=0;exitDy=0;" edge="1" parent="1" source="hAPkz2zvEFKOFmrOKY_a-10" target="hAPkz2zvEFKOFmrOKY_a-12">
          <mxGeometry relative="1" as="geometry" />
        </mxCell>
        <mxCell id="hAPkz2zvEFKOFmrOKY_a-27" value="" style="edgeStyle=orthogonalEdgeStyle;rounded=0;orthogonalLoop=1;jettySize=auto;html=1;" edge="1" parent="1" source="hAPkz2zvEFKOFmrOKY_a-10" target="hAPkz2zvEFKOFmrOKY_a-26">
          <mxGeometry relative="1" as="geometry" />
        </mxCell>
        <mxCell id="hAPkz2zvEFKOFmrOKY_a-10" value="models" style="rounded=1;whiteSpace=wrap;html=1;" vertex="1" parent="1">
          <mxGeometry x="425" y="210" width="120" height="60" as="geometry" />
        </mxCell>
        <mxCell id="hAPkz2zvEFKOFmrOKY_a-14" value="" style="edgeStyle=orthogonalEdgeStyle;rounded=0;orthogonalLoop=1;jettySize=auto;html=1;" edge="1" parent="1" source="hAPkz2zvEFKOFmrOKY_a-12" target="hAPkz2zvEFKOFmrOKY_a-13">
          <mxGeometry relative="1" as="geometry" />
        </mxCell>
        <mxCell id="hAPkz2zvEFKOFmrOKY_a-29" value="" style="edgeStyle=orthogonalEdgeStyle;rounded=0;orthogonalLoop=1;jettySize=auto;html=1;" edge="1" parent="1" source="hAPkz2zvEFKOFmrOKY_a-12" target="hAPkz2zvEFKOFmrOKY_a-28">
          <mxGeometry relative="1" as="geometry" />
        </mxCell>
        <mxCell id="hAPkz2zvEFKOFmrOKY_a-12" value="routes" style="rounded=1;whiteSpace=wrap;html=1;" vertex="1" parent="1">
          <mxGeometry x="570" y="210" width="120" height="60" as="geometry" />
        </mxCell>
        <mxCell id="hAPkz2zvEFKOFmrOKY_a-31" value="" style="edgeStyle=orthogonalEdgeStyle;rounded=0;orthogonalLoop=1;jettySize=auto;html=1;" edge="1" parent="1" source="hAPkz2zvEFKOFmrOKY_a-13" target="hAPkz2zvEFKOFmrOKY_a-30">
          <mxGeometry relative="1" as="geometry" />
        </mxCell>
        <mxCell id="hAPkz2zvEFKOFmrOKY_a-13" value="UTILS" style="rounded=1;whiteSpace=wrap;html=1;" vertex="1" parent="1">
          <mxGeometry x="770" y="210" width="120" height="60" as="geometry" />
        </mxCell>
        <mxCell id="hAPkz2zvEFKOFmrOKY_a-22" value="app.go&lt;br&gt;" style="whiteSpace=wrap;html=1;rounded=1;" vertex="1" parent="1">
          <mxGeometry x="180" y="350" width="120" height="60" as="geometry" />
        </mxCell>
        <mxCell id="hAPkz2zvEFKOFmrOKY_a-24" value="book controller" style="rhombus;whiteSpace=wrap;html=1;rounded=1;" vertex="1" parent="1">
          <mxGeometry x="320" y="340" width="80" height="80" as="geometry" />
        </mxCell>
        <mxCell id="hAPkz2zvEFKOFmrOKY_a-26" value="Book.go" style="shape=parallelogram;perimeter=parallelogramPerimeter;whiteSpace=wrap;html=1;fixedSize=1;rounded=1;" vertex="1" parent="1">
          <mxGeometry x="425" y="350" width="120" height="60" as="geometry" />
        </mxCell>
        <mxCell id="hAPkz2zvEFKOFmrOKY_a-28" value="Bookstore Routes" style="whiteSpace=wrap;html=1;rounded=1;" vertex="1" parent="1">
          <mxGeometry x="570" y="350" width="120" height="60" as="geometry" />
        </mxCell>
        <mxCell id="hAPkz2zvEFKOFmrOKY_a-30" value="utils.go" style="rounded=1;whiteSpace=wrap;html=1;" vertex="1" parent="1">
          <mxGeometry x="770" y="350" width="120" height="60" as="geometry" />
        </mxCell>
        <mxCell id="hAPkz2zvEFKOFmrOKY_a-32" value="Project Structure" style="text;html=1;strokeColor=none;fillColor=none;align=center;verticalAlign=middle;whiteSpace=wrap;rounded=0;" vertex="1" parent="1">
          <mxGeometry x="310" y="20" width="470" height="30" as="geometry" />
        </mxCell>
        <mxCell id="hAPkz2zvEFKOFmrOKY_a-35" value="" style="edgeStyle=orthogonalEdgeStyle;rounded=0;orthogonalLoop=1;jettySize=auto;html=1;" edge="1" parent="1" source="hAPkz2zvEFKOFmrOKY_a-33" target="hAPkz2zvEFKOFmrOKY_a-36">
          <mxGeometry relative="1" as="geometry">
            <mxPoint x="690" y="540" as="targetPoint" />
          </mxGeometry>
        </mxCell>
        <mxCell id="hAPkz2zvEFKOFmrOKY_a-33" value="GET" style="rounded=1;whiteSpace=wrap;html=1;" vertex="1" parent="1">
          <mxGeometry x="770" y="510" width="120" height="60" as="geometry" />
        </mxCell>
        <mxCell id="hAPkz2zvEFKOFmrOKY_a-38" value="" style="edgeStyle=orthogonalEdgeStyle;rounded=0;orthogonalLoop=1;jettySize=auto;html=1;" edge="1" parent="1" source="hAPkz2zvEFKOFmrOKY_a-36" target="hAPkz2zvEFKOFmrOKY_a-39">
          <mxGeometry relative="1" as="geometry">
            <mxPoint x="550" y="540" as="targetPoint" />
          </mxGeometry>
        </mxCell>
        <mxCell id="hAPkz2zvEFKOFmrOKY_a-36" value="/book/" style="rounded=1;whiteSpace=wrap;html=1;" vertex="1" parent="1">
          <mxGeometry x="537" y="510" width="118" height="60" as="geometry" />
        </mxCell>
        <mxCell id="hAPkz2zvEFKOFmrOKY_a-39" value="Getbooks" style="rounded=0;whiteSpace=wrap;html=1;" vertex="1" parent="1">
          <mxGeometry x="280" y="510" width="120" height="60" as="geometry" />
        </mxCell>
        <mxCell id="hAPkz2zvEFKOFmrOKY_a-42" value="" style="edgeStyle=orthogonalEdgeStyle;rounded=0;orthogonalLoop=1;jettySize=auto;html=1;" edge="1" parent="1" source="hAPkz2zvEFKOFmrOKY_a-40" target="hAPkz2zvEFKOFmrOKY_a-41">
          <mxGeometry relative="1" as="geometry" />
        </mxCell>
        <mxCell id="hAPkz2zvEFKOFmrOKY_a-40" value="POST" style="rounded=1;whiteSpace=wrap;html=1;" vertex="1" parent="1">
          <mxGeometry x="770" y="630" width="120" height="60" as="geometry" />
        </mxCell>
        <mxCell id="hAPkz2zvEFKOFmrOKY_a-44" value="" style="edgeStyle=orthogonalEdgeStyle;rounded=0;orthogonalLoop=1;jettySize=auto;html=1;" edge="1" parent="1" source="hAPkz2zvEFKOFmrOKY_a-41">
          <mxGeometry relative="1" as="geometry">
            <mxPoint x="390" y="660" as="targetPoint" />
          </mxGeometry>
        </mxCell>
        <mxCell id="hAPkz2zvEFKOFmrOKY_a-41" value="/book/" style="whiteSpace=wrap;html=1;rounded=1;" vertex="1" parent="1">
          <mxGeometry x="535" y="630" width="120" height="60" as="geometry" />
        </mxCell>
        <mxCell id="hAPkz2zvEFKOFmrOKY_a-45" value="createbooks" style="rounded=1;whiteSpace=wrap;html=1;" vertex="1" parent="1">
          <mxGeometry x="280" y="630" width="120" height="60" as="geometry" />
        </mxCell>
        <mxCell id="hAPkz2zvEFKOFmrOKY_a-48" value="" style="edgeStyle=orthogonalEdgeStyle;rounded=0;orthogonalLoop=1;jettySize=auto;html=1;" edge="1" parent="1" source="hAPkz2zvEFKOFmrOKY_a-46" target="hAPkz2zvEFKOFmrOKY_a-47">
          <mxGeometry relative="1" as="geometry" />
        </mxCell>
        <mxCell id="hAPkz2zvEFKOFmrOKY_a-46" value="GET" style="rounded=1;whiteSpace=wrap;html=1;" vertex="1" parent="1">
          <mxGeometry x="760" y="760" width="120" height="60" as="geometry" />
        </mxCell>
        <mxCell id="hAPkz2zvEFKOFmrOKY_a-50" value="" style="edgeStyle=orthogonalEdgeStyle;rounded=0;orthogonalLoop=1;jettySize=auto;html=1;" edge="1" parent="1" source="hAPkz2zvEFKOFmrOKY_a-47" target="hAPkz2zvEFKOFmrOKY_a-49">
          <mxGeometry relative="1" as="geometry" />
        </mxCell>
        <mxCell id="hAPkz2zvEFKOFmrOKY_a-47" value="/book{bookid}" style="rounded=1;whiteSpace=wrap;html=1;" vertex="1" parent="1">
          <mxGeometry x="535" y="760" width="120" height="60" as="geometry" />
        </mxCell>
        <mxCell id="hAPkz2zvEFKOFmrOKY_a-49" value="Getbook by id" style="rounded=1;whiteSpace=wrap;html=1;" vertex="1" parent="1">
          <mxGeometry x="280" y="760" width="120" height="60" as="geometry" />
        </mxCell>
        <mxCell id="hAPkz2zvEFKOFmrOKY_a-54" style="edgeStyle=orthogonalEdgeStyle;rounded=0;orthogonalLoop=1;jettySize=auto;html=1;entryX=1;entryY=0.5;entryDx=0;entryDy=0;" edge="1" parent="1" source="hAPkz2zvEFKOFmrOKY_a-51" target="hAPkz2zvEFKOFmrOKY_a-52">
          <mxGeometry relative="1" as="geometry" />
        </mxCell>
        <mxCell id="hAPkz2zvEFKOFmrOKY_a-51" value="PUT" style="rounded=1;whiteSpace=wrap;html=1;" vertex="1" parent="1">
          <mxGeometry x="770" y="860" width="120" height="60" as="geometry" />
        </mxCell>
        <mxCell id="hAPkz2zvEFKOFmrOKY_a-55" style="edgeStyle=orthogonalEdgeStyle;rounded=0;orthogonalLoop=1;jettySize=auto;html=1;exitX=0;exitY=0.5;exitDx=0;exitDy=0;" edge="1" parent="1" source="hAPkz2zvEFKOFmrOKY_a-52" target="hAPkz2zvEFKOFmrOKY_a-53">
          <mxGeometry relative="1" as="geometry" />
        </mxCell>
        <mxCell id="hAPkz2zvEFKOFmrOKY_a-52" value="/book{bookid}" style="rounded=1;whiteSpace=wrap;html=1;" vertex="1" parent="1">
          <mxGeometry x="545" y="860" width="120" height="60" as="geometry" />
        </mxCell>
        <mxCell id="hAPkz2zvEFKOFmrOKY_a-53" value="Update Book id" style="rounded=1;whiteSpace=wrap;html=1;" vertex="1" parent="1">
          <mxGeometry x="270" y="860" width="120" height="60" as="geometry" />
        </mxCell>
        <mxCell id="hAPkz2zvEFKOFmrOKY_a-60" style="edgeStyle=orthogonalEdgeStyle;rounded=0;orthogonalLoop=1;jettySize=auto;html=1;exitX=0;exitY=0.5;exitDx=0;exitDy=0;entryX=1;entryY=0.5;entryDx=0;entryDy=0;" edge="1" parent="1" source="hAPkz2zvEFKOFmrOKY_a-56" target="hAPkz2zvEFKOFmrOKY_a-57">
          <mxGeometry relative="1" as="geometry" />
        </mxCell>
        <mxCell id="hAPkz2zvEFKOFmrOKY_a-56" value="DELETE" style="rounded=1;whiteSpace=wrap;html=1;" vertex="1" parent="1">
          <mxGeometry x="770" y="960" width="120" height="60" as="geometry" />
        </mxCell>
        <mxCell id="hAPkz2zvEFKOFmrOKY_a-59" style="edgeStyle=orthogonalEdgeStyle;rounded=0;orthogonalLoop=1;jettySize=auto;html=1;exitX=0;exitY=0.5;exitDx=0;exitDy=0;entryX=1;entryY=0.5;entryDx=0;entryDy=0;" edge="1" parent="1" source="hAPkz2zvEFKOFmrOKY_a-57" target="hAPkz2zvEFKOFmrOKY_a-58">
          <mxGeometry relative="1" as="geometry" />
        </mxCell>
        <mxCell id="hAPkz2zvEFKOFmrOKY_a-57" value="/book{bookid}" style="rounded=1;whiteSpace=wrap;html=1;" vertex="1" parent="1">
          <mxGeometry x="545" y="960" width="120" height="60" as="geometry" />
        </mxCell>
        <mxCell id="hAPkz2zvEFKOFmrOKY_a-58" value="Delete Book id" style="rounded=1;whiteSpace=wrap;html=1;" vertex="1" parent="1">
          <mxGeometry x="270" y="960" width="120" height="60" as="geometry" />
        </mxCell>
        <mxCell id="hAPkz2zvEFKOFmrOKY_a-61" value="Routes" style="text;html=1;strokeColor=none;fillColor=none;align=center;verticalAlign=middle;whiteSpace=wrap;rounded=0;" vertex="1" parent="1">
          <mxGeometry x="460" y="710" width="370" height="30" as="geometry" />
        </mxCell>
      </root>
    </mxGraphModel>
  </diagram>
</mxfile>
